<?xml version="1.0" encoding="UTF-8"?> <svg xmlns="http://www.w3.org/2000/svg" viewBox="0 0 600 600"><defs><style>.cls-1{isolation:isolate;}.cls-2{fill:#00b71d;}.cls-3{fill:#ffaa01;}.cls-4{fill:#ff4d0f;}.cls-5{fill:#ffdd57;}.cls-6{fill:#a2c75e;}.cls-7{font-size:24px;fill:#fff;}.cls-11,.cls-12,.cls-7{font-family:Texta-Black, Texta;font-weight:800;}.cls-8{fill:#23394c;}.cls-9{fill:#467197;}.cls-10{fill:#f1f2f2;}.cls-11,.cls-12{font-size:37px;}.cls-11{fill:#ed1c24;}.cls-12{fill:#006838;}.cls-13{fill:#231f20;mix-blend-mode:overlay;}</style></defs><title>fico_graph</title><g class="cls-1"><g id="Layer_1" data-name="Layer 1"><path class="cls-2" d="M537.44,307.91H434.23a133.49,133.49,0,0,1-66.8,115.66L419,513A236.64,236.64,0,0,0,537.44,307.91Z"></path><path class="cls-3" d="M233.87,192.25l-51.6-89.38a236.62,236.62,0,0,0-118.4,205H167.08A133.48,133.48,0,0,1,233.87,192.25Z"></path><path class="cls-4" d="M167.08,307.91H63.87a236.65,236.65,0,0,0,118.4,205l51.6-89.38A133.5,133.5,0,0,1,167.08,307.91Z"></path><path class="cls-5" d="M300.65,174.34a132.89,132.89,0,0,1,66.78,17.91L419,102.87a236.57,236.57,0,0,0-236.76,0l51.6,89.38A132.92,132.92,0,0,1,300.65,174.34Z"></path><path class="cls-6" d="M434.23,307.91H537.44A236.61,236.61,0,0,0,419,102.87l-51.6,89.38A133.47,133.47,0,0,1,434.23,307.91Z"></path><text class="cls-7" transform="matrix(-0.82, -0.57, 0.57, -0.82, 203.86, 458.64)">3</text><text class="cls-7" transform="translate(194.24 452.06) rotate(-141.11)">0</text><text class="cls-7" transform="translate(183.18 443.18) rotate(-136.6)">0</text><text class="cls-7" transform="matrix(-0.69, -0.72, 0.72, -0.69, 172.74, 433.15)"> </text><text class="cls-7" transform="translate(169.66 429.92) rotate(-132.22)"> </text><text class="cls-7" transform="matrix(-0.65, -0.76, 0.76, -0.65, 166.68, 426.64)"> </text><text class="cls-7" transform="matrix(-0.63, -0.77, 0.77, -0.63, 163.75, 423.27)"> </text><text class="cls-7" transform="matrix(-0.62, -0.79, 0.79, -0.62, 160.94, 419.84)"> </text><text class="cls-7" transform="matrix(-0.6, -0.8, 0.8, -0.6, 158.19, 416.33)"> </text><text class="cls-7" transform="matrix(-0.58, -0.82, 0.82, -0.58, 155.54, 412.75)"> </text><text class="cls-7" transform="matrix(-0.56, -0.83, 0.83, -0.56, 152.97, 409.12)"> </text><text class="cls-7" transform="matrix(-0.53, -0.85, 0.85, -0.53, 150.5, 405.42)"> </text><text class="cls-7" transform="matrix(-0.51, -0.86, 0.86, -0.51, 148.12, 401.66)"> </text><text class="cls-7" transform="translate(145.83 397.84) rotate(-119.44)"> </text><text class="cls-7" transform="matrix(-0.47, -0.88, 0.88, -0.47, 143.65, 393.98)"> </text><text class="cls-7" transform="translate(141.54 390.04) rotate(-116.59)"> </text><text class="cls-7" transform="translate(139.55 386.07) rotate(-115.16)"> </text><text class="cls-7" transform="translate(137.66 382.04) rotate(-113.73)"> </text><text class="cls-7" transform="translate(135.87 377.99) rotate(-112.3)"> </text><text class="cls-7" transform="translate(134.18 373.87) rotate(-110.87)"> </text><text class="cls-7" transform="translate(132.59 369.71) rotate(-109.43)"> </text><text class="cls-7" transform="translate(131.11 365.53) rotate(-108)"> </text><text class="cls-7" transform="translate(129.73 361.29) rotate(-106.56)"> </text><text class="cls-7" transform="translate(128.46 357.05) rotate(-105.13)"> </text><text class="cls-7" transform="translate(127.3 352.74) rotate(-103.69)"> </text><text class="cls-7" transform="translate(126.24 348.42) rotate(-102.26)"> </text><text class="cls-7" transform="translate(125.29 344.07) rotate(-100.82)"> </text><text class="cls-7" transform="translate(124.45 339.7) rotate(-99.4)"> </text><text class="cls-7" transform="matrix(-0.14, -0.99, 0.99, -0.14, 123.72, 335.32)"> </text><text class="cls-7" transform="translate(123.1 330.9) rotate(-96.54)"> </text><text class="cls-7" transform="translate(122.59 326.5) rotate(-95.13)"> </text><text class="cls-7" transform="translate(122.19 322.07) rotate(-93.72)"> </text><text class="cls-7" transform="translate(121.9 317.62) rotate(-92.31)"> </text><text class="cls-7" transform="translate(121.71 313.17) rotate(-90.93)"> </text><text class="cls-7" transform="translate(121.62 308.81) rotate(-89.07)"> </text><text class="cls-7" transform="matrix(0.03, -1, 1, 0.03, 121.67, 304.25)"> </text><text class="cls-7" transform="translate(121.72 300.04) rotate(-85.56)">5</text><text class="cls-7" transform="translate(122.57 288.46) rotate(-81.71)">8</text><text class="cls-7" transform="translate(124.3 276.14) rotate(-77.43)">0</text><text class="cls-7" transform="translate(127.57 262.02) rotate(-74.42)"> </text><text class="cls-7" transform="translate(128.76 257.74) rotate(-72.99)"> </text><text class="cls-7" transform="translate(130.05 253.5) rotate(-71.56)"> </text><text class="cls-7" transform="matrix(0.34, -0.94, 0.94, 0.34, 131.46, 249.27)"> </text><text class="cls-7" transform="translate(132.97 245.09) rotate(-68.69)"> </text><text class="cls-7" transform="translate(134.57 240.96) rotate(-67.26)"> </text><text class="cls-7" transform="translate(136.29 236.85) rotate(-65.82)"> </text><text class="cls-7" transform="translate(138.11 232.79) rotate(-64.39)"> </text><text class="cls-7" transform="matrix(0.45, -0.89, 0.89, 0.45, 140.03, 228.78)"> </text><text class="cls-7" transform="translate(142.06 224.8) rotate(-61.53)"> </text><text class="cls-7" transform="translate(144.16 220.9) rotate(-60.11)"> </text><text class="cls-7" transform="matrix(0.52, -0.85, 0.85, 0.52, 146.38, 217.04)"> </text><text class="cls-7" transform="matrix(0.54, -0.84, 0.84, 0.54, 148.69, 213.23)"> </text><text class="cls-7" transform="matrix(0.56, -0.83, 0.83, 0.56, 151.09, 209.49)"> </text><text class="cls-7" transform="matrix(0.58, -0.81, 0.81, 0.58, 153.58, 205.81)"> </text><text class="cls-7" transform="matrix(0.6, -0.8, 0.8, 0.6, 156.18, 202.17)"> </text><text class="cls-7" transform="translate(158.85 198.63) rotate(-51.58)"> </text><text class="cls-7" transform="matrix(0.64, -0.77, 0.77, 0.64, 161.61, 195.14)"> </text><text class="cls-7" transform="translate(164.46 191.72) rotate(-48.75)"> </text><text class="cls-7" transform="matrix(0.68, -0.74, 0.74, 0.68, 167.4, 188.36)"> </text><text class="cls-7" transform="matrix(0.7, -0.72, 0.72, 0.7, 170.4, 185.1)"> </text><text class="cls-7" transform="translate(173.51 181.89) rotate(-44.5)"> </text><text class="cls-7" transform="matrix(0.73, -0.68, 0.68, 0.73, 176.66, 178.78)"> </text><text class="cls-7" transform="matrix(0.75, -0.66, 0.66, 0.75, 179.92, 175.73)"> </text><text class="cls-7" transform="translate(183.24 172.77) rotate(-40.25)"> </text><text class="cls-7" transform="matrix(0.78, -0.63, 0.63, 0.78, 186.64, 169.89)"> </text><text class="cls-7" transform="translate(190.09 167.1) rotate(-37.42)"> </text><text class="cls-7" transform="matrix(0.81, -0.59, 0.59, 0.81, 193.64, 164.38)"> </text><text class="cls-7" transform="translate(197.23 161.77) rotate(-34.58)"> </text><text class="cls-7" transform="matrix(0.84, -0.55, 0.55, 0.84, 200.89, 159.24)"> </text><text class="cls-7" transform="matrix(0.85, -0.53, 0.53, 0.85, 204.61, 156.81)"> </text><text class="cls-7" transform="translate(208.4 154.46) rotate(-30.31)"> </text><text class="cls-7" transform="matrix(0.88, -0.48, 0.48, 0.88, 212.25, 152.21)"> </text><text class="cls-7" transform="translate(215.82 150.1) rotate(-26.13)">6</text><text class="cls-7" transform="translate(227.32 144.46) rotate(-22.31)">7</text><text class="cls-7" transform="translate(237.33 140.26) rotate(-18.26)">0</text><text class="cls-7" transform="translate(251.11 135.83) rotate(-15.26)"> </text><text class="cls-7" transform="matrix(0.97, -0.24, 0.24, 0.97, 255.42, 134.65)"> </text><text class="cls-7" transform="matrix(0.98, -0.21, 0.21, 0.98, 259.73, 133.59)"> </text><text class="cls-7" transform="matrix(0.98, -0.19, 0.19, 0.98, 264.08, 132.63)"> </text><text class="cls-7" transform="translate(268.44 131.78) rotate(-9.53)"> </text><text class="cls-7" transform="translate(272.82 131.04) rotate(-8.11)"> </text><text class="cls-7" transform="translate(277.24 130.41) rotate(-6.68)"> </text><text class="cls-7" transform="matrix(1, -0.09, 0.09, 1, 281.64, 129.89)"> </text><text class="cls-7" transform="translate(286.07 129.48) rotate(-3.85)"> </text><text class="cls-7" transform="matrix(1, -0.04, 0.04, 1, 290.53, 129.17)"> </text><text class="cls-7" transform="matrix(1, -0.02, 0.02, 1, 294.99, 128.98)"> </text><text class="cls-7" transform="translate(299.32 128.87) rotate(0.93)"> </text><text class="cls-7" transform="matrix(1, 0.03, -0.03, 1, 303.87, 128.92)"> </text><text class="cls-7" transform="translate(308.32 129.05) rotate(3.16)"> </text><text class="cls-7" transform="translate(312.78 129.3) rotate(4.58)"> </text><text class="cls-7" transform="translate(317.2 129.65) rotate(5.99)"> </text><text class="cls-7" transform="translate(321.63 130.11) rotate(7.41)"> </text><text class="cls-7" transform="translate(326.06 130.68) rotate(8.85)"> </text><text class="cls-7" transform="translate(330.44 131.36) rotate(10.27)"> </text><text class="cls-7" transform="translate(334.82 132.15) rotate(11.7)"> </text><text class="cls-7" transform="translate(339.18 133.05) rotate(13.13)"> </text><text class="cls-7" transform="matrix(0.97, 0.25, -0.25, 0.97, 343.5, 134.05)"> </text><text class="cls-7" transform="translate(347.81 135.17) rotate(16)"> </text><text class="cls-7" transform="translate(352.08 136.39) rotate(17.43)"> </text><text class="cls-7" transform="translate(356.33 137.72) rotate(18.87)"> </text><text class="cls-7" transform="translate(360.55 139.16) rotate(20.31)"> </text><text class="cls-7" transform="translate(364.71 140.69) rotate(21.74)"> </text><text class="cls-7" transform="translate(368.83 142.33) rotate(23.17)"> </text><text class="cls-7" transform="translate(372.93 144.08) rotate(24.6)"> </text><text class="cls-7" transform="translate(376.97 145.93) rotate(26.03)"> </text><text class="cls-7" transform="translate(380.98 147.88) rotate(27.46)"> </text><text class="cls-7" transform="translate(384.93 149.93) rotate(28.89)"> </text><text class="cls-7" transform="matrix(0.86, 0.5, -0.5, 0.86, 388.83, 152.08)"> </text><text class="cls-7" transform="translate(392.67 154.32) rotate(31.74)"> </text><text class="cls-7" transform="translate(396.3 156.47) rotate(34.2)">7</text><text class="cls-7" transform="matrix(0.79, 0.61, -0.61, 0.79, 404.79, 162.13)">4</text><text class="cls-7" transform="matrix(0.74, 0.67, -0.67, 0.74, 415.13, 170.09)">0</text><text class="cls-7" transform="matrix(0.71, 0.71, -0.71, 0.71, 425.81, 179.91)"> </text><text class="cls-7" transform="matrix(0.69, 0.73, -0.73, 0.69, 428.94, 183.05)"> </text><text class="cls-7" transform="translate(432.01 186.29) rotate(47.95)"> </text><text class="cls-7" transform="translate(434.98 189.58) rotate(49.36)"> </text><text class="cls-7" transform="translate(437.9 192.96) rotate(50.78)"> </text><text class="cls-7" transform="matrix(0.61, 0.79, -0.79, 0.61, 440.7, 196.4)"> </text><text class="cls-7" transform="matrix(0.59, 0.81, -0.81, 0.59, 443.45, 199.93)"> </text><text class="cls-7" transform="matrix(0.57, 0.82, -0.82, 0.57, 446.08, 203.5)"> </text><text class="cls-7" transform="matrix(0.55, 0.83, -0.83, 0.55, 448.64, 207.14)"> </text><text class="cls-7" transform="translate(451.1 210.85) rotate(57.87)"> </text><text class="cls-7" transform="matrix(0.51, 0.86, -0.86, 0.51, 453.47, 214.62)"> </text><text class="cls-7" transform="translate(455.75 218.45) rotate(60.73)"> </text><text class="cls-7" transform="translate(457.92 222.31) rotate(62.15)"> </text><text class="cls-7" transform="matrix(0.44, 0.9, -0.9, 0.44, 460.01, 226.26)"> </text><text class="cls-7" transform="translate(461.99 230.24) rotate(65.02)"> </text><text class="cls-7" transform="translate(463.87 234.27) rotate(66.45)"> </text><text class="cls-7" transform="matrix(0.38, 0.93, -0.93, 0.38, 465.65, 238.33)"> </text><text class="cls-7" transform="translate(467.32 242.44) rotate(69.31)"> </text><text class="cls-7" transform="matrix(0.33, 0.94, -0.94, 0.33, 468.9, 246.6)"> </text><text class="cls-7" transform="matrix(0.31, 0.95, -0.95, 0.31, 470.37, 250.81)"> </text><text class="cls-7" transform="matrix(0.28, 0.96, -0.96, 0.28, 471.73, 255.03)"> </text><text class="cls-7" transform="translate(472.99 259.3) rotate(75.05)"> </text><text class="cls-7" transform="translate(474.15 263.61) rotate(76.49)"> </text><text class="cls-7" transform="matrix(0.21, 0.98, -0.98, 0.21, 475.19, 267.93)"> </text><text class="cls-7" transform="matrix(0.18, 0.98, -0.98, 0.18, 476.12, 272.26)"> </text><text class="cls-7" transform="translate(476.95 276.65) rotate(80.78)"> </text><text class="cls-7" transform="translate(477.67 281.03) rotate(82.2)"> </text><text class="cls-7" transform="matrix(0.11, 0.99, -0.99, 0.11, 478.27, 285.44)"> </text><text class="cls-7" transform="matrix(0.09, 1, -1, 0.09, 478.77, 289.88)"> </text><text class="cls-7" transform="translate(479.16 294.3) rotate(86.46)"> </text><text class="cls-7" transform="matrix(0.04, 1, -1, 0.04, 479.44, 298.75)"> </text><text class="cls-7" transform="translate(479.6 303.25) rotate(89.07)"> </text><text class="cls-7" transform="translate(479.68 307.59) rotate(90.93)"> </text><text class="cls-7" transform="matrix(-0.04, 1, -1, -0.04, 479.62, 312.1)"> </text><text class="cls-7" transform="matrix(-0.06, 1, -1, -0.06, 479.46, 316.54)"> </text><text class="cls-7" transform="translate(479.33 320.73) rotate(96.17)">8</text><text class="cls-7" transform="translate(478.05 333.12) rotate(100.44)">0</text><text class="cls-7" transform="matrix(-0.26, 0.97, -0.97, -0.26, 475.53, 347.05)">0</text><text class="cls-7" transform="translate(471.67 361.01) rotate(108)"> </text><text class="cls-7" transform="matrix(-0.33, 0.94, -0.94, -0.33, 470.3, 365.22)"> </text><text class="cls-7" transform="translate(468.83 369.41) rotate(110.86)"> </text><text class="cls-7" transform="translate(467.24 373.59) rotate(112.3)"> </text><text class="cls-7" transform="translate(465.56 377.69) rotate(113.73)"> </text><text class="cls-7" transform="translate(463.77 381.76) rotate(115.16)"> </text><text class="cls-7" transform="translate(461.89 385.79) rotate(116.59)"> </text><text class="cls-7" transform="matrix(-0.47, 0.88, -0.88, -0.47, 459.89, 389.79)"> </text><text class="cls-7" transform="matrix(-0.49, 0.87, -0.87, -0.49, 457.81, 393.7)"> </text><text class="cls-7" transform="translate(455.62 397.58) rotate(120.87)"> </text><text class="cls-7" transform="matrix(-0.53, 0.85, -0.85, -0.53, 453.34, 401.41)"> </text><text class="cls-7" transform="matrix(-0.56, 0.83, -0.83, -0.56, 450.97, 405.17)"> </text><text class="cls-7" transform="matrix(-0.58, 0.82, -0.82, -0.58, 448.51, 408.87)"> </text><text class="cls-7" transform="translate(445.95 412.5) rotate(126.56)"> </text><text class="cls-7" transform="translate(443.29 416.09) rotate(127.98)"> </text><text class="cls-7" transform="matrix(-0.63, 0.77, -0.77, -0.63, 440.57, 419.59)"> </text><text class="cls-7" transform="matrix(-0.65, 0.76, -0.76, -0.65, 437.73, 423.05)"> </text><text class="cls-7" transform="translate(434.84 426.4) rotate(132.22)"> </text><text class="cls-7" transform="translate(431.84 429.71) rotate(133.64)"> </text><text class="cls-7" transform="matrix(-0.72, 0.69, -0.69, -0.72, 429.05, 432.8)">8</text><text class="cls-7" transform="translate(419.98 441.48) rotate(140.18)">5</text><text class="cls-7" transform="translate(411.15 448.95) rotate(144.29)">0</text><text class="cls-7" transform="translate(399.32 457.3) rotate(147.26)"> </text><text class="cls-7" transform="matrix(-0.85, 0.52, -0.52, -0.85, 395.58, 459.71)"> </text><text class="cls-7" transform="translate(391.78 462.03) rotate(150.11)"> </text><polygon class="cls-8" points="364.44 288.26 504.44 314.61 363.09 332.37 364.44 288.26"></polygon><circle class="cls-9" cx="299.62" cy="309.79" r="93.8" transform="translate(-131.3 302.6) rotate(-45)"></circle><circle class="cls-8" cx="299.62" cy="309.79" r="44.05" transform="translate(-102.18 465.67) rotate(-67.16)"></circle><circle class="cls-10" cx="299.62" cy="309.79" r="22.77" transform="translate(-35.51 38.81) rotate(-7)"></circle><text class="cls-11" transform="translate(219.64 528.16) rotate(-60.16)">POOR</text><text class="cls-12" transform="translate(341.12 447.1) rotate(60.4)">GOOD</text><path class="cls-13" d="M505.65,307.91c0-113-92-205-205-205s-205,92-205,205A205.12,205.12,0,0,0,198.18,485.4l18-31.17a169.11,169.11,0,0,1-84.52-146.32c0-93.19,75.82-169,169-169s169,75.81,169,169a169.09,169.09,0,0,1-84.52,146.32l18,31.17A205.11,205.11,0,0,0,505.65,307.91Z"></path></g></g></svg> 